<svg width="108" height="20" viewBox="0 0 108 20" fill="none" xmlns="http://www.w3.org/2000/svg">
<path d="M8.66797 3.37891C7.72266 3.37891 6.87109 3.54297 6.11328 3.87109C5.36328 4.19141 4.72266 4.66016 4.19141 5.27734C3.66797 5.88672 3.26562 6.625 2.98438 7.49219C2.70312 8.35938 2.5625 9.33594 2.5625 10.4219C2.5625 11.8594 2.78516 13.1094 3.23047 14.1719C3.68359 15.2266 4.35547 16.043 5.24609 16.6211C6.14453 17.1992 7.26562 17.4883 8.60938 17.4883C9.375 17.4883 10.0938 17.4258 10.7656 17.3008C11.4453 17.168 12.1055 17.0039 12.7461 16.8086V18.543C12.1211 18.7773 11.4648 18.9492 10.7773 19.0586C10.0898 19.1758 9.27344 19.2344 8.32812 19.2344C6.58594 19.2344 5.12891 18.875 3.95703 18.1562C2.79297 17.4297 1.91797 16.4062 1.33203 15.0859C0.753906 13.7656 0.464844 12.207 0.464844 10.4102C0.464844 9.11328 0.644531 7.92969 1.00391 6.85938C1.37109 5.78125 1.90234 4.85156 2.59766 4.07031C3.30078 3.28906 4.16016 2.6875 5.17578 2.26562C6.19922 1.83594 7.37109 1.62109 8.69141 1.62109C9.55859 1.62109 10.3945 1.70703 11.1992 1.87891C12.0039 2.05078 12.7305 2.29688 13.3789 2.61719L12.582 4.30469C12.0352 4.05469 11.4336 3.83984 10.7773 3.66016C10.1289 3.47266 9.42578 3.37891 8.66797 3.37891ZM27.2422 12.5547C27.2422 13.6094 27.1055 14.5508 26.832 15.3789C26.5586 16.207 26.1641 16.9062 25.6484 17.4766C25.1328 18.0469 24.5078 18.4844 23.7734 18.7891C23.0469 19.0859 22.2227 19.2344 21.3008 19.2344C20.4414 19.2344 19.6523 19.0859 18.9336 18.7891C18.2227 18.4844 17.6055 18.0469 17.082 17.4766C16.5664 16.9062 16.1641 16.207 15.875 15.3789C15.5938 14.5508 15.4531 13.6094 15.4531 12.5547C15.4531 11.1484 15.6914 9.95312 16.168 8.96875C16.6445 7.97656 17.3242 7.22266 18.207 6.70703C19.0977 6.18359 20.1562 5.92188 21.3828 5.92188C22.5547 5.92188 23.5781 6.18359 24.4531 6.70703C25.3359 7.23047 26.0195 7.98828 26.5039 8.98047C26.9961 9.96484 27.2422 11.1562 27.2422 12.5547ZM17.4688 12.5547C17.4688 13.5859 17.6055 14.4805 17.8789 15.2383C18.1523 15.9961 18.5742 16.582 19.1445 16.9961C19.7148 17.4102 20.4492 17.6172 21.3477 17.6172C22.2383 17.6172 22.9688 17.4102 23.5391 16.9961C24.1172 16.582 24.543 15.9961 24.8164 15.2383C25.0898 14.4805 25.2266 13.5859 25.2266 12.5547C25.2266 11.5312 25.0898 10.6484 24.8164 9.90625C24.543 9.15625 24.1211 8.57812 23.5508 8.17188C22.9805 7.76562 22.2422 7.5625 21.3359 7.5625C20 7.5625 19.0195 8.00391 18.3945 8.88672C17.7773 9.76953 17.4688 10.9922 17.4688 12.5547ZM32.5625 19H30.6055V0.765625H32.5625V19ZM38.6328 19H36.6758V0.765625H38.6328V19ZM47.6914 5.92188C48.7852 5.92188 49.7227 6.16406 50.5039 6.64844C51.2852 7.13281 51.8828 7.8125 52.2969 8.6875C52.7109 9.55469 52.918 10.5703 52.918 11.7344V12.9414H44.0469C44.0703 14.4492 44.4453 15.5977 45.1719 16.3867C45.8984 17.1758 46.9219 17.5703 48.2422 17.5703C49.0547 17.5703 49.7734 17.4961 50.3984 17.3477C51.0234 17.1992 51.6719 16.9805 52.3438 16.6914V18.4023C51.6953 18.6914 51.0508 18.9023 50.4102 19.0352C49.7773 19.168 49.0273 19.2344 48.1602 19.2344C46.9258 19.2344 45.8477 18.9844 44.9258 18.4844C44.0117 17.9766 43.3008 17.2344 42.793 16.2578C42.2852 15.2812 42.0312 14.0859 42.0312 12.6719C42.0312 11.2891 42.2617 10.0938 42.7227 9.08594C43.1914 8.07031 43.8477 7.28906 44.6914 6.74219C45.543 6.19531 46.543 5.92188 47.6914 5.92188ZM47.668 7.51562C46.6289 7.51562 45.8008 7.85547 45.1836 8.53516C44.5664 9.21484 44.1992 10.1641 44.082 11.3828H50.8789C50.8711 10.6172 50.75 9.94531 50.5156 9.36719C50.2891 8.78125 49.9414 8.32812 49.4727 8.00781C49.0039 7.67969 48.4023 7.51562 47.668 7.51562ZM61.3672 19.2344C60.2109 19.2344 59.1914 18.9961 58.3086 18.5195C57.4258 18.043 56.7383 17.3164 56.2461 16.3398C55.7539 15.3633 55.5078 14.1328 55.5078 12.6484C55.5078 11.0938 55.7656 9.82422 56.2812 8.83984C56.8047 7.84766 57.5234 7.11328 58.4375 6.63672C59.3516 6.16016 60.3906 5.92188 61.5547 5.92188C62.1953 5.92188 62.8125 5.98828 63.4062 6.12109C64.0078 6.24609 64.5 6.40625 64.8828 6.60156L64.2969 8.23047C63.9062 8.07422 63.4531 7.93359 62.9375 7.80859C62.4297 7.68359 61.9531 7.62109 61.5078 7.62109C60.6172 7.62109 59.875 7.8125 59.2812 8.19531C58.6953 8.57812 58.2539 9.14062 57.957 9.88281C57.668 10.625 57.5234 11.5391 57.5234 12.625C57.5234 13.6641 57.6641 14.5508 57.9453 15.2852C58.2344 16.0195 58.6602 16.582 59.2227 16.9727C59.793 17.3555 60.5039 17.5469 61.3555 17.5469C62.0352 17.5469 62.6484 17.4766 63.1953 17.3359C63.7422 17.1875 64.2383 17.0156 64.6836 16.8203V18.5547C64.2539 18.7734 63.7734 18.9414 63.2422 19.0586C62.7188 19.1758 62.0938 19.2344 61.3672 19.2344ZM71.8789 17.6406C72.1992 17.6406 72.5273 17.6133 72.8633 17.5586C73.1992 17.5039 73.4727 17.4375 73.6836 17.3594V18.8711C73.457 18.9727 73.1406 19.0586 72.7344 19.1289C72.3359 19.1992 71.9453 19.2344 71.5625 19.2344C70.8828 19.2344 70.2656 19.1172 69.7109 18.8828C69.1562 18.6406 68.7109 18.2344 68.375 17.6641C68.0469 17.0938 67.8828 16.3047 67.8828 15.2969V7.67969H66.0547V6.73047L67.8945 5.96875L68.668 3.17969H69.8398V6.15625H73.6016V7.67969H69.8398V15.2383C69.8398 16.043 70.0234 16.6445 70.3906 17.043C70.7656 17.4414 71.2617 17.6406 71.8789 17.6406ZM78.2305 6.15625V19H76.2852V6.15625H78.2305ZM77.2812 1.35156C77.6016 1.35156 77.875 1.45703 78.1016 1.66797C78.3359 1.87109 78.4531 2.19141 78.4531 2.62891C78.4531 3.05859 78.3359 3.37891 78.1016 3.58984C77.875 3.80078 77.6016 3.90625 77.2812 3.90625C76.9453 3.90625 76.6641 3.80078 76.4375 3.58984C76.2188 3.37891 76.1094 3.05859 76.1094 2.62891C76.1094 2.19141 76.2188 1.87109 76.4375 1.66797C76.6641 1.45703 76.9453 1.35156 77.2812 1.35156ZM93.4297 12.5547C93.4297 13.6094 93.293 14.5508 93.0195 15.3789C92.7461 16.207 92.3516 16.9062 91.8359 17.4766C91.3203 18.0469 90.6953 18.4844 89.9609 18.7891C89.2344 19.0859 88.4102 19.2344 87.4883 19.2344C86.6289 19.2344 85.8398 19.0859 85.1211 18.7891C84.4102 18.4844 83.793 18.0469 83.2695 17.4766C82.7539 16.9062 82.3516 16.207 82.0625 15.3789C81.7812 14.5508 81.6406 13.6094 81.6406 12.5547C81.6406 11.1484 81.8789 9.95312 82.3555 8.96875C82.832 7.97656 83.5117 7.22266 84.3945 6.70703C85.2852 6.18359 86.3438 5.92188 87.5703 5.92188C88.7422 5.92188 89.7656 6.18359 90.6406 6.70703C91.5234 7.23047 92.207 7.98828 92.6914 8.98047C93.1836 9.96484 93.4297 11.1562 93.4297 12.5547ZM83.6562 12.5547C83.6562 13.5859 83.793 14.4805 84.0664 15.2383C84.3398 15.9961 84.7617 16.582 85.332 16.9961C85.9023 17.4102 86.6367 17.6172 87.5352 17.6172C88.4258 17.6172 89.1562 17.4102 89.7266 16.9961C90.3047 16.582 90.7305 15.9961 91.0039 15.2383C91.2773 14.4805 91.4141 13.5859 91.4141 12.5547C91.4141 11.5312 91.2773 10.6484 91.0039 9.90625C90.7305 9.15625 90.3086 8.57812 89.7383 8.17188C89.168 7.76562 88.4297 7.5625 87.5234 7.5625C86.1875 7.5625 85.207 8.00391 84.582 8.88672C83.9648 9.76953 83.6562 10.9922 83.6562 12.5547ZM102.875 5.92188C104.398 5.92188 105.551 6.29688 106.332 7.04688C107.113 7.78906 107.504 8.98438 107.504 10.6328V19H105.582V10.7617C105.582 9.69141 105.336 8.89062 104.844 8.35938C104.359 7.82812 103.613 7.5625 102.605 7.5625C101.184 7.5625 100.184 7.96484 99.6055 8.76953C99.0273 9.57422 98.7383 10.7422 98.7383 12.2734V19H96.793V6.15625H98.3633L98.6562 8.00781H98.7617C99.0352 7.55469 99.3828 7.17578 99.8047 6.87109C100.227 6.55859 100.699 6.32422 101.223 6.16797C101.746 6.00391 102.297 5.92188 102.875 5.92188Z" fill="white"/>
</svg>
