<svg width="262" height="107" viewBox="0 0 262 107" fill="none" xmlns="http://www.w3.org/2000/svg">
<path d="M176.136 48.3045C176.33 48.3045 176.718 48.3045 176.912 48.3045C177.882 44.8126 178.464 41.3207 178.464 37.4408C178.464 34.1429 178.076 31.0391 177.3 28.1292H175.554C176.33 31.0391 176.718 34.1429 176.718 37.4408C176.718 41.1267 176.136 44.8126 175.166 48.1105C175.554 48.3045 175.748 48.3045 176.136 48.3045Z" fill="white"/>
<path d="M174.389 20.1754C173.807 19.0114 173.031 17.6535 172.255 16.4895V19.5934C172.255 19.7874 172.449 19.9814 172.449 20.1754H174.389Z" fill="white"/>
<path d="M105.318 31.4269C108.228 14.5495 122.974 1.55195 140.824 1.55195C150.914 1.55195 159.839 5.62581 166.436 12.2216L168.182 11.6396C161.391 4.46185 151.69 0 140.824 0C122.586 0 107.258 12.9976 103.766 30.263C104.348 30.6509 104.93 31.0389 105.318 31.4269Z" fill="white"/>
<path d="M105.512 50.6319C108.422 58.7796 114.049 65.3754 121.422 69.8372C122.004 69.6432 122.78 69.2552 123.556 69.2552C117.735 66.1513 112.885 61.3015 109.586 55.6757V55.4817C108.422 53.5418 107.452 51.4079 106.676 49.2739C106.288 49.6619 105.9 50.2439 105.512 50.6319Z" fill="white"/>
<path d="M150.526 72.3591C150.332 72.3591 150.138 72.5531 149.944 72.5531C150.138 72.7471 150.332 72.7471 150.526 72.9411V72.3591Z" fill="white"/>
<path d="M159.45 70.4199C165.27 67.122 170.121 62.2722 173.419 56.6464C172.837 56.6464 172.255 56.6464 171.673 56.4524C168.375 61.8842 163.524 66.3461 157.897 69.4499H158.868H159.45V70.0319V70.4199Z" fill="white"/>
<path d="M129.766 72.5537C129.96 72.3597 130.154 72.3597 130.348 72.1657C130.154 72.1657 129.96 71.9717 129.766 71.9717V72.5537Z" fill="white"/>
<path d="M127.049 69.0612C120.647 66.1513 115.214 61.4955 111.527 55.4817H110.945C114.438 61.3015 119.676 65.9573 125.691 69.0612H127.049Z" fill="white"/>
<path d="M107.451 48.1107C108.033 49.8566 108.615 51.6026 109.391 53.1545V51.7966C108.809 50.4386 108.227 48.8867 107.645 47.3347C107.839 47.5287 107.645 47.9167 107.451 48.1107Z" fill="white"/>
<path d="M132.676 71.0013C131.706 70.8073 130.736 70.4193 129.766 70.2253V70.8073C130.348 71.0013 131.124 71.1953 131.706 71.3893C132.094 71.1953 132.288 71.0013 132.676 71.0013Z" fill="white"/>
<path d="M109.587 22.1155C108.034 25.2194 106.87 28.7113 106.288 32.3971C106.482 32.5911 106.676 32.7851 106.676 32.9791C107.064 29.6812 108.034 26.3833 109.392 23.2794V22.1155H109.587Z" fill="white"/>
<path d="M165.272 12.6102C159.063 6.40243 150.332 2.71655 140.825 2.71655C127.825 2.71655 116.378 9.89431 110.363 20.3699H110.945C116.96 10.0883 128.02 3.29854 140.631 3.29854C149.944 3.29854 158.287 6.98441 164.496 12.8042L165.272 12.6102Z" fill="white"/>
<path d="M154.017 69.2557H155.375C161.584 66.3458 166.822 61.6899 170.509 56.0641C170.315 56.0641 170.121 55.8701 169.927 55.8701C166.24 61.8839 160.613 66.5398 154.017 69.2557Z" fill="white"/>
<path d="M175.749 37.6349C175.749 34.337 175.361 31.2331 174.391 28.3232H173.809C174.585 31.2331 175.167 34.337 175.167 37.6349C175.167 41.1268 174.585 44.4247 173.615 47.7226C173.809 47.9166 174.003 47.9166 174.197 47.9166C175.361 44.6187 175.749 41.1268 175.749 37.6349Z" fill="white"/>
<path d="M150.525 70.6135C149.555 70.8075 148.779 71.1955 147.809 71.3895C148.003 71.5835 148.391 71.5835 148.585 71.7775C149.167 71.5835 149.943 71.3895 150.525 71.1955V70.6135Z" fill="white"/>
<path d="M174.585 37.6348C174.585 34.3369 174.197 31.233 173.227 28.1292H172.645C173.615 31.039 174.003 34.3369 174.003 37.6348C174.003 40.7387 173.615 43.6486 172.839 46.5585C173.033 46.7525 173.033 46.9465 173.227 47.1405C174.197 44.2306 174.585 40.9327 174.585 37.6348Z" fill="white"/>
<path d="M108.229 46.5584C108.617 47.9164 109.005 49.0804 109.587 50.4383V48.8864C109.199 47.9164 108.811 46.7524 108.617 45.7825C108.423 46.1705 108.423 46.3645 108.229 46.5584Z" fill="white"/>
<path d="M163.914 12.9973C157.899 7.37153 149.75 3.87964 140.825 3.87964C128.601 3.87964 117.736 10.4754 111.915 20.3691H112.497C118.318 10.8634 128.795 4.46162 140.825 4.46162C149.556 4.46162 157.317 7.75951 163.332 13.1913L163.914 12.9973Z" fill="white"/>
<path d="M134.227 70.2252C125.301 68.4792 117.54 63.0474 112.884 55.4817H112.302C115.988 61.4955 121.809 66.3453 128.406 69.0612H129.376H129.958V69.6432C131.122 70.0312 132.286 70.4192 133.45 70.6132C133.644 70.6132 134.032 70.4192 134.227 70.2252Z" fill="white"/>
<path d="M109.587 26.5771V25.0251C108.423 27.7411 107.647 30.651 107.259 33.7548C107.453 33.9488 107.647 34.3368 107.647 34.5308C108.035 31.8149 108.617 29.099 109.587 26.5771Z" fill="white"/>
<path d="M151.107 69.2552H152.66C159.644 66.7333 165.465 61.8835 169.346 55.6757C169.152 55.6757 168.958 55.4817 168.764 55.4817C164.883 61.8835 158.674 66.9273 151.107 69.2552Z" fill="white"/>
<path d="M150.525 70.0313V69.6433C149.167 70.0313 147.615 70.4193 146.062 70.6133C146.451 70.8073 146.645 70.8073 147.033 71.0013C148.391 70.6133 149.555 70.4193 150.525 70.0313Z" fill="white"/>
<path d="M109.587 46.7528V44.6188C109.393 44.0369 109.393 43.6489 109.199 43.0669C109.199 43.4549 109.005 44.0369 109.005 44.4248C109.199 45.3948 109.393 46.1708 109.587 46.7528Z" fill="white"/>
<path d="M109.587 30.6513V28.5173C109.005 30.8453 108.423 33.1732 108.423 35.5011C108.617 35.8891 108.811 36.4711 108.811 36.859C108.811 34.9191 109.005 32.7852 109.587 30.6513Z" fill="white"/>
<path d="M172.452 45.7821C173.034 43.2602 173.422 40.5443 173.422 37.8284C173.422 34.7245 173.034 31.6206 172.063 28.7107V30.8446C172.646 33.1725 172.84 35.5005 172.84 37.8284C172.84 40.1563 172.646 42.4842 172.063 44.6181C172.258 45.0061 172.452 45.3941 172.452 45.7821Z" fill="white"/>
<path d="M137.136 69.6438C127.629 68.4798 119.286 63.242 114.241 55.6763H113.659C118.51 63.242 126.465 68.4798 135.778 70.0318C136.166 69.8378 136.554 69.6438 137.136 69.6438Z" fill="white"/>
<path d="M162.748 13.9672V13.5793C156.927 8.34144 149.36 5.23755 141.017 5.23755C129.376 5.23755 119.287 11.2513 113.466 20.563H114.048C119.675 11.6393 129.764 5.81952 141.017 5.81952C149.36 5.81952 157.121 9.11741 162.748 14.3552V13.9672Z" fill="white"/>
<path d="M143.153 69.6434C143.735 69.8374 144.123 69.8374 144.706 70.0314C154.601 68.8674 163.138 63.2416 168.376 55.0939C168.182 55.0939 167.988 54.8999 167.988 54.8999C162.556 63.2416 153.631 68.8674 143.153 69.6434Z" fill="white"/>
<path d="M164.301 51.2144C159.645 59.3621 150.914 64.7939 140.824 64.7939C131.511 64.7939 123.362 60.1381 118.512 52.9603V55.0942V55.6762H117.93H115.407C121.034 63.6299 130.347 68.8678 141.018 68.8678C152.078 68.8678 161.779 63.0479 167.406 54.5122C166.824 54.1243 166.242 53.5423 165.854 52.9603C165.077 52.3783 164.689 51.7963 164.301 51.2144Z" fill="white"/>
<path d="M162.748 20.1753V15.1315C157.121 9.69964 149.36 6.20776 141.017 6.20776C130.151 6.20776 120.45 11.8336 115.018 20.1753H118.316H118.898V20.7573V21.9212C123.749 14.9375 131.898 10.2816 141.017 10.2816C149.36 10.2816 156.927 13.9675 161.777 19.9813L162.748 20.1753Z" fill="white"/>
<path d="M162.749 44.6188C159.839 53.9305 151.108 60.5263 140.825 60.5263C129.959 60.5263 121.034 53.1545 118.512 43.0669V51.7966C123.168 59.1683 131.511 64.0182 140.825 64.0182C150.72 64.0182 159.451 58.5864 163.913 50.4386C163.137 48.8867 162.749 47.1408 162.749 45.0068V44.6188Z" fill="white"/>
<path d="M161.003 20.1748C156.152 14.549 148.973 11.0571 140.824 11.0571C132.287 11.0571 124.526 15.131 119.676 21.5328C121.422 20.1748 123.75 19.5928 126.467 19.5928C130.347 16.4889 135.392 14.743 140.63 14.743C148.779 14.743 155.764 18.8169 159.839 25.2186V21.1448V20.5628H160.421L161.003 20.1748Z" fill="white"/>
<path d="M162.749 30.4571V28.1292H161.973C162.167 28.9051 162.555 29.6811 162.749 30.4571Z" fill="white"/>
<path d="M160.81 28.3232C161.78 30.4572 162.362 32.5911 162.75 34.919V32.7851C162.362 31.2331 161.974 29.6812 161.198 28.3232H160.81Z" fill="white"/>
<path d="M119.094 32.0086C118.9 33.1725 118.706 34.3365 118.512 35.5005V39.7683C119.676 51.2139 129.183 60.1376 140.825 60.1376C151.496 60.1376 160.615 52.5719 162.749 42.4842V40.3503C161.391 51.2139 152.078 59.7496 140.825 59.7496C128.601 59.7496 118.706 49.856 118.706 37.6344C118.706 35.1125 119.094 32.7846 119.87 30.6506C119.676 31.0386 119.288 31.6206 119.094 32.0086Z" fill="white"/>
<path d="M160.033 26.7714V25.9955C156.152 19.3997 148.973 15.1318 140.824 15.1318C135.78 15.1318 131.317 16.6838 127.437 19.5937C127.631 19.5937 127.825 19.5937 128.019 19.5937C131.705 17.0718 135.974 15.5198 140.824 15.5198C149.167 15.5198 156.346 19.9817 160.033 26.7714Z" fill="white"/>
<path d="M140.824 17.6533C136.944 17.6533 133.257 18.8173 130.347 20.5632V22.6972C133.257 20.5632 136.944 19.3993 140.824 19.3993C150.913 19.3993 159.062 27.547 159.062 37.6346C159.062 39.7686 158.674 42.0965 158.092 44.0364C150.137 39.5746 141.406 37.0527 130.153 36.8587C127.63 36.8587 125.108 36.8587 122.586 37.0527C122.78 33.7548 123.75 30.6509 125.496 27.935C125.108 27.935 124.72 27.935 124.332 27.935C123.944 27.935 123.556 28.129 123.168 28.129C121.616 31.0389 120.646 34.3367 120.646 37.8286C120.646 48.8862 129.571 58.0039 140.824 58.0039C151.883 58.0039 161.003 49.0802 161.003 37.8286C161.003 26.577 152.077 17.6533 140.824 17.6533Z" fill="white"/>
<path d="M23.4395 28.7106C27.9021 26.1887 29.2602 23.0848 29.0662 19.399C28.6781 12.6092 24.4096 8.72934 15.4845 7.95337L0.350586 8.34135V55.0937H17.0367C17.2307 55.0937 17.2307 55.0937 17.4247 55.0937C23.6335 55.0937 31.9766 50.2439 32.3646 42.0962C32.5586 35.8884 29.6483 31.2326 23.4395 28.7106ZM8.88766 14.9371H15.6785C18.5889 14.9371 20.5291 17.265 20.7231 20.3689C20.7231 23.4728 18.9769 26.5767 14.1263 26.5767H13.9323H8.69363V14.9371H8.88766ZM14.5144 48.304H8.88766V32.9785H15.6785C21.3052 33.3665 23.2455 35.5004 23.2455 40.9322C23.4395 45.976 19.947 48.11 14.5144 48.304Z" fill="white"/>
<path d="M93.8707 55.0937C97.7512 55.0937 102.214 53.3478 105.318 50.0499C105.706 49.6619 106.094 49.0799 106.482 48.692C106.676 48.304 107.064 47.916 107.258 47.334C107.452 47.14 107.452 46.752 107.646 46.558C107.84 46.364 107.84 45.9761 108.034 45.5881C108.034 45.3941 108.034 45.2001 108.228 45.2001C108.228 45.0061 108.422 44.8121 108.422 44.8121C108.422 44.8121 108.422 44.8121 108.422 44.6181C108.617 44.0361 108.617 43.4541 108.811 42.8722C108.811 42.4842 108.811 42.2902 108.811 41.9022C108.811 41.1262 108.811 40.3502 108.811 39.5743C108.811 39.3803 108.811 39.3803 108.811 39.1863C108.811 38.6043 108.617 38.0223 108.422 37.4403C108.422 37.4403 108.422 37.4403 108.422 37.2464C108.228 36.6644 108.034 36.0824 107.84 35.5004C107.452 35.3064 107.452 35.1124 107.258 34.7244C107.064 34.3364 106.87 34.1425 106.676 33.7545C106.482 33.5605 106.288 33.3665 106.288 33.1725C105.9 32.7845 105.706 32.3965 105.318 32.0085C105.124 31.8145 104.93 31.6205 104.736 31.6205C104.542 31.4266 104.154 31.0386 103.96 30.8446C102.796 30.0686 101.632 29.2926 100.273 28.7106C104.736 26.1887 106.094 23.0848 105.9 19.399C105.512 12.6092 101.244 8.72934 92.3185 7.95337L77.1846 8.34135V55.0937H93.8707C93.6766 55.0937 93.6766 55.0937 93.8707 55.0937ZM85.5276 14.9371H92.3185C95.2288 14.9371 97.1691 17.265 97.3631 20.3689C97.3631 23.4728 95.6169 26.5767 90.7663 26.5767H90.5723H85.3336L85.5276 14.9371ZM85.5276 48.304V32.9785H92.3185C97.9452 33.3665 99.8854 35.5004 99.8854 40.9322C99.8854 46.17 96.587 48.304 90.9603 48.304H85.5276Z" fill="white"/>
<path d="M189.331 76.8217V104.563H197.286V70.4199H186.227V76.8217H189.331Z" fill="white"/>
<path d="M210.478 104.563V55.6763L202.523 58.9742V104.563H210.478Z" fill="white"/>
<path d="M118.124 20.9511H114.437H113.467H112.885H112.109H111.527H110.751H110.169V22.1151V23.667V25.025V26.7709V28.5169V31.8147V43.6483V47.3342V48.6922V50.4381V51.7961V52.96V54.124V54.8999H110.557H111.139H111.721H112.303H113.273H113.855H115.02H117.93V51.7961V50.8261V39.1865V35.8886V34.5307C117.93 34.1427 117.93 33.5607 118.124 33.1727C118.124 32.9787 118.124 32.9787 118.318 32.7847C118.512 32.3967 118.512 32.0087 118.706 31.8147C119.676 29.4868 121.81 27.5469 124.333 27.3529C124.721 27.3529 125.109 27.3529 125.497 27.3529C127.049 27.3529 128.989 27.7409 129.959 28.3229V23.473V22.3091V20.5631C129.183 20.3691 128.407 20.3691 127.631 20.3691C127.437 20.3691 127.243 20.3691 127.049 20.3691C126.661 20.3691 126.467 20.3691 126.079 20.3691C125.885 20.3691 125.497 20.3691 125.303 20.5631C124.915 20.5631 124.333 20.5631 123.945 20.7571C123.557 20.7571 123.169 20.9511 122.975 21.1451C122.587 21.3391 122.198 21.3391 121.81 21.5331C121.422 21.7271 121.034 21.9211 120.646 22.1151C120.452 22.3091 120.064 22.5031 119.87 22.6971C119.288 23.085 118.706 23.667 118.318 24.249V23.279L118.124 20.9511Z" fill="white"/>
<path d="M258.597 20.1752C254.522 20.1752 251.612 21.5331 249.477 24.055V20.9511H241.716V31.2328C239 23.6671 233.761 20.3692 226.777 20.1752C226.389 20.1752 226.194 20.1752 225.806 20.1752C219.016 20.1752 213.971 23.2791 210.479 30.2628C209.508 24.249 206.016 20.3692 197.867 20.3692C197.673 20.3692 197.479 20.3692 197.285 20.3692C194.18 20.3692 191.076 21.1451 188.942 22.8911V6.01367L180.793 8.1476V47.9162L177.688 48.6922C177.494 48.6922 177.3 48.6922 176.912 48.6922C176.718 48.6922 176.524 48.6922 176.33 48.6922H176.136C174.778 48.4982 173.808 48.1102 173.032 47.3342L172.838 47.1402C172.45 46.7523 172.256 46.3643 172.062 45.7823V45.5883C171.868 45.0063 171.674 44.4243 171.674 43.6484V43.0664V31.4268V28.1289V27.3529H172.062H172.838H173.42H174.002H174.584H175.748H177.494H178.853V20.5632H174.972H173.226H171.48V18.4292V15.7133V11.0575L168.569 12.0275L166.823 12.6094L164.301 13.3854H164.107L163.137 13.7734V13.9674V14.7434V15.7133V20.7572H161.972H161.39H160.614V25.801V26.9649V27.5469H160.808H161.39H163.137V32.7847V35.5006V40.3505V42.2904V45.2003C163.137 45.9763 163.331 46.7523 163.525 47.5282C163.525 47.7222 163.525 47.9162 163.719 47.9162C163.913 48.4982 164.107 49.0802 164.301 49.4682V49.6622C164.301 49.8561 164.495 50.0501 164.495 50.2441C164.495 50.2441 164.495 50.4381 164.689 50.4381C165.077 51.2141 165.465 51.7961 166.047 52.3781C166.435 52.96 167.017 53.348 167.405 53.736C167.599 53.93 167.987 54.124 168.181 54.124C168.375 54.124 168.569 54.318 168.569 54.318C168.763 54.512 168.957 54.512 169.151 54.706C169.151 54.706 169.151 54.706 169.345 54.706C169.345 54.706 169.539 54.706 169.539 54.9H169.733C169.927 54.9 170.121 54.9 170.315 55.094C170.51 55.094 170.704 55.288 170.898 55.288C171.286 55.288 171.674 55.482 172.062 55.482C172.644 55.482 173.226 55.676 173.808 55.676H174.002L180.793 54.9H188.748V30.4568C190.3 28.1289 192.628 26.9649 195.927 26.9649C200.001 27.1589 202.135 29.0989 202.524 32.9787V54.9H210.284H210.479V47.1402C213.777 52.766 217.851 55.676 224.448 55.676C225.03 55.676 225.806 55.676 226.583 55.676C229.687 55.482 232.015 55.288 234.926 54.124V46.1703C233.373 47.3342 232.403 47.7222 231.239 48.3042C230.463 48.6922 228.911 48.8862 227.553 48.8862H227.359C221.926 48.6922 217.657 46.5583 217.463 40.3505H241.716V54.9H249.477V34.1427C250.448 29.8748 252.776 27.5469 256.074 27.1589C256.462 27.1589 256.656 27.1589 257.044 27.1589C258.597 27.1589 260.343 27.5469 261.313 28.1289V20.5632C260.149 20.1752 259.373 20.1752 258.597 20.1752ZM217.657 34.3367C218.045 29.0989 221.732 26.9649 225.612 26.9649H225.806C231.045 26.9649 233.761 30.2628 233.955 34.3367H217.657Z" fill="white"/>
<path d="M99.8852 78.5674C104.348 76.0455 105.9 72.9416 105.706 69.0617C105.318 62.078 100.855 58.1981 91.9302 57.4221L76.4082 57.8101V105.338H93.2883C93.4824 105.338 93.4824 105.338 93.6764 105.338C100.079 105.338 108.422 100.295 108.81 92.1469C109.004 85.7451 106.094 81.0893 99.8852 78.5674ZM85.1393 64.5999H91.9302C94.8405 64.5999 96.9748 66.9278 96.9748 70.0317C96.9748 73.1356 95.2286 76.2395 90.378 76.2395H90.1839H84.9453L85.1393 64.5999ZM90.766 98.3547H85.1393V82.8352H91.9302C97.7509 83.4172 99.6911 85.3572 99.6911 90.789C99.6911 96.2208 96.1987 98.3547 90.766 98.3547Z" fill="white"/>
<path d="M193.599 68.092C196.171 68.092 198.256 66.0075 198.256 63.4361C198.256 60.8648 196.171 58.7803 193.599 58.7803C191.027 58.7803 188.942 60.8648 188.942 63.4361C188.942 66.0075 191.027 68.092 193.599 68.092Z" fill="white"/>
<path d="M173.615 83.8045C169.346 83.0286 168.376 82.6406 168.376 82.6406C167.6 82.4466 165.272 79.7307 167.6 77.9847C168.57 77.2088 169.54 77.0148 170.705 77.0148C172.257 77.0148 173.809 77.5967 174.585 78.1787C175.943 79.1487 177.107 81.4766 177.107 81.4766L184.286 78.9547C184.286 78.9547 182.928 75.2688 180.794 73.1349C179.63 71.9709 177.107 69.061 169.928 69.061C169.734 69.061 169.734 69.061 169.54 69.061C162.168 69.061 159.063 75.8508 159.063 75.8508V70.613V70.031H156.929H154.019H152.466H151.108V70.419V71.001V72.1649V73.9109V74.1049C151.108 74.1049 150.914 74.1049 150.914 73.9109C150.914 73.9109 150.914 73.9109 150.72 73.9109C150.526 73.7169 150.332 73.7169 150.138 73.5229C150.138 73.5229 149.944 73.5229 149.944 73.3289C149.75 73.1349 149.362 72.9409 149.168 72.7469C148.78 72.5529 148.198 72.1649 147.616 71.9709C147.422 71.7769 147.034 71.7769 146.646 71.5829C146.452 71.389 146.063 71.389 145.869 71.195C145.481 71.001 145.093 71.001 144.705 70.807C144.123 70.613 143.347 70.419 142.765 70.419H142.571C142.377 70.419 142.183 70.419 141.989 70.419C141.407 70.419 140.631 70.225 139.855 70.225C139.079 70.225 138.303 70.225 137.72 70.419C137.138 70.613 136.362 70.613 135.78 70.807H135.586C135.392 70.807 135.004 71.001 134.81 71.001C134.616 71.195 134.228 71.195 134.034 71.389C133.646 71.5829 133.452 71.583 133.258 71.7769C132.676 71.9709 132.288 72.3589 131.706 72.5529C131.706 72.5529 131.706 72.5529 131.512 72.5529C131.318 72.7469 130.93 72.9409 130.736 72.9409C130.542 72.9409 130.542 73.1349 130.542 73.1349C130.348 73.3289 130.153 73.3289 129.959 73.5229C129.959 73.5229 129.959 73.5229 129.765 73.5229C129.571 73.7169 129.377 73.7169 129.377 73.7169V73.3289V71.5829V70.419V70.031V69.837H128.795H127.243H124.915C124.721 69.837 124.721 69.837 124.527 69.837C124.333 69.837 123.945 69.837 123.751 69.837C123.363 69.837 123.169 70.031 122.781 70.031C122.587 70.031 122.198 70.225 122.004 70.225C119.094 71.195 117.348 73.5229 117.348 73.5229V70.419H109.587V104.562H117.348V86.3264C117.348 86.3264 117.154 81.2826 119.676 78.7607C121.616 76.8208 124.527 76.6268 125.691 76.6268C125.885 76.6268 126.079 76.6268 126.079 76.6268C126.079 76.6268 120.452 83.2225 122.781 92.9222C124.139 97.966 129.377 104.756 137.72 105.532C138.497 105.532 139.079 105.726 139.661 105.726C146.84 105.726 151.108 101.846 151.108 101.846V105.726H158.675V100.876C158.675 100.876 162.168 104.562 164.884 105.532C166.436 106.114 168.57 106.502 171.093 106.502C173.421 106.502 175.943 106.114 178.466 105.144C184.286 102.816 186.227 96.6081 184.868 91.7583C183.51 86.7144 178.078 84.5805 173.615 83.8045ZM140.049 98.354C134.228 98.354 129.571 93.6982 129.571 87.8784C129.571 82.0586 134.228 77.4028 140.049 77.4028C145.869 77.4028 150.526 82.0586 150.526 87.8784C150.526 93.6982 145.869 98.354 140.049 98.354ZM174.197 99.13C173.227 99.324 172.451 99.324 171.675 99.324C169.152 99.324 167.6 98.548 166.63 97.3841C165.078 96.0261 164.108 93.3102 164.108 93.3102L158.869 95.0561V84.9685C158.869 84.9685 161.779 89.2363 168.764 90.5943C173.809 91.5643 177.107 92.9222 177.301 94.4742C177.689 95.4441 178.078 98.354 174.197 99.13Z" fill="white"/>
<path d="M33.5289 27.3535V55.0946H41.2899V21.1458H30.2305V27.3535H33.5289Z" fill="white"/>
<path d="M73.1105 55.0946C72.7225 52.9606 71.7524 51.4087 70.3942 50.2447C68.842 48.8868 66.3197 48.1108 63.4093 48.1108H63.2153C63.0213 48.1108 62.8272 48.1108 62.8272 48.1108L57.3946 48.6928C55.8424 48.8868 54.6782 49.0808 53.9021 49.0808C52.738 49.0808 52.1559 48.6928 52.1559 48.1108C52.3499 46.9469 53.126 46.1709 54.8722 45.7829L57.5886 46.1709C57.9766 46.1709 58.5587 46.1709 58.9467 46.1709C62.2452 46.1709 65.3496 45.2009 67.8719 42.873C70.3942 40.5451 71.7524 37.4412 71.7524 33.5613C71.5583 31.0394 70.9763 28.7115 69.6181 26.3836L73.3046 23.2797L73.4986 23.0857L68.0659 18.2358L64.5735 21.7277C62.4392 20.5638 59.9169 19.9818 57.2005 19.9818C53.32 19.9818 49.8276 21.3397 47.1113 23.8616C44.2009 26.5776 42.8427 29.6814 43.0367 33.1733C43.0367 36.6652 44.3949 39.5751 47.3053 41.903L49.2455 43.261C45.9471 44.4249 44.3949 46.5589 44.3949 49.6628C45.171 52.9606 47.6933 54.7066 51.5738 54.9006C51.5738 54.9006 56.6185 54.7066 58.9467 54.5126C59.5288 54.5126 60.1109 54.5126 60.887 54.5126C63.2153 54.5126 65.9316 55.0946 65.5436 57.4225C65.3495 58.9744 63.7974 60.1384 61.081 60.7204C59.9169 60.9144 58.9467 61.1084 57.7826 61.1084C56.4244 61.1084 55.2603 60.9144 53.9021 60.5264C51.5738 59.9444 49.6336 58.7804 48.2754 57.2285L43.4248 63.2423C46.3352 65.7642 50.7977 67.5101 56.4244 68.0921C56.8125 68.0921 57.0065 68.0921 57.3946 68.0921C57.5886 68.0921 57.7826 68.0921 57.7826 68.0921C66.3197 67.7041 71.5583 64.6002 73.1105 59.3624C73.3046 58.5865 73.3046 56.4525 73.1105 55.0946ZM50.2156 33.3673C50.2156 31.4274 50.7977 29.8754 52.1559 28.7115C53.5141 27.3535 55.0663 26.7715 56.8125 26.7715C58.3647 26.7715 60.1109 27.3535 61.4691 28.7115C62.8272 29.8754 63.4093 31.4274 63.4093 33.3673C63.4093 35.1133 62.8272 36.6652 61.4691 37.8292C59.9169 39.1871 58.3647 39.7691 56.8125 39.7691C54.8722 39.7691 53.32 39.1871 52.1559 37.8292C50.9917 36.6652 50.2156 35.1133 50.2156 33.3673Z" fill="white"/>
<path d="M37.5305 16.865C40.1458 16.865 42.266 14.7853 42.266 12.2199C42.266 9.65441 40.1458 7.57471 37.5305 7.57471C34.9151 7.57471 32.7949 9.65441 32.7949 12.2199C32.7949 14.7853 34.9151 16.865 37.5305 16.865Z" fill="white"/>
</svg>
