<svg width="24" height="24" viewBox="0 0 24 24" fill="none" xmlns="http://www.w3.org/2000/svg">
<path fill-rule="evenodd" clip-rule="evenodd" d="M17.8824 10.353C17.8824 14.5114 14.5114 17.8824 10.353 17.8824C6.19457 17.8824 2.82353 14.5114 2.82353 10.353C2.82353 6.19457 6.19457 2.82353 10.353 2.82353C14.5114 2.82353 17.8824 6.19457 17.8824 10.353ZM16.6644 18.5603C14.9173 19.9058 12.7286 20.7059 10.353 20.7059C4.63518 20.7059 0 16.0707 0 10.353C0 4.63518 4.63518 0 10.353 0C16.0707 0 20.7059 4.63518 20.7059 10.353C20.7059 12.6182 19.9784 14.7135 18.7443 16.418L23.5866 21.59C24.1378 22.1413 24.1378 23.0352 23.5866 23.5866C23.0352 24.1378 22.1413 24.1378 21.59 23.5866L16.6644 18.5603Z" fill="#EEEEEE"/>
</svg>
