<svg width="276" height="38" viewBox="0 0 276 38" fill="none" xmlns="http://www.w3.org/2000/svg">
<path d="M18.32 11.56C19 11.56 19.36 11.96 19.36 12.76V28.16C19.36 34.36 15.48 38 9.24 38C6.6 38 4.24 37.48 2.44 36.48C2.08 36.28 1.88 35.96 1.88 35.6C1.88 35.08 2.16 34.68 2.56 34.68C2.8 34.68 3 34.8 3.48 35.04C4.68 35.64 6.76 36.24 9.08 36.24C14.28 36.24 17.24 33.36 17.24 28.52V25.68C15.76 28.84 12.8 30.48 9.52 30.48C4.84 30.48 0.68 27.04 0.68 20.96C0.68 14.88 5.04 11.4 9.56 11.4C12.76 11.4 15.8 13.12 17.28 16.32V12.76C17.28 11.96 17.64 11.56 18.32 11.56ZM10 28.72C14.04 28.72 17.24 25.6 17.24 20.96C17.24 16.56 14.04 13.24 10 13.24C6.32 13.24 2.68 15.96 2.68 20.96C2.68 25.96 6.12 28.72 10 28.72ZM29.1594 31.4C26.9194 31.4 25.4794 30.16 25.4794 27.52V1.76C25.4794 1.12 25.8394 0.719999 26.4394 0.719999C27.0394 0.719999 27.4794 1.12 27.4794 1.76V27.28C27.4794 29.04 28.3594 29.6 29.4794 29.6C30.6394 29.6 31.3594 29.08 31.7194 29.08C32.0794 29.08 32.3594 29.36 32.3594 29.8C32.3594 30.2 32.1594 30.52 31.7594 30.76C31.1594 31.12 30.1594 31.4 29.1594 31.4ZM43.7613 31.4C38.4813 31.4 33.9613 27.04 33.9613 21.32C33.9613 15.64 38.5213 11.4 43.7613 11.4C48.9613 11.4 53.5213 15.64 53.5213 21.32C53.5213 27.04 49.0013 31.4 43.7613 31.4ZM43.7613 29.56C48.0013 29.56 51.5213 26.12 51.5213 21.32C51.5213 16.6 48.0013 13.24 43.7613 13.24C39.5213 13.24 35.9613 16.64 35.9613 21.32C35.9613 26.12 39.5213 29.56 43.7613 29.56ZM67.8519 11.4C72.7319 11.4 77.0519 15.04 77.0519 21.36C77.0519 27.72 72.4519 31.4 67.8919 31.4C64.8119 31.4 61.4919 29.68 60.2119 26.36V30.08C60.2119 30.72 59.8919 31.16 59.2519 31.16C58.6519 31.16 58.2519 30.8 58.2519 30.08V2.04C58.2519 1.4 58.6119 0.959998 59.2119 0.959998C59.8119 0.959998 60.2119 1.32 60.2119 2.04L60.2519 16.28C61.5319 13 64.7319 11.4 67.8519 11.4ZM67.5319 29.56C71.3719 29.56 75.0119 26.56 75.0119 21.4C75.0119 16.28 71.6119 13.28 67.5319 13.28C63.5719 13.28 60.1719 16.28 60.1719 21.4C60.1719 26.56 63.7719 29.56 67.5319 29.56ZM89.8159 31.4C84.5359 31.4 80.0159 27.04 80.0159 21.32C80.0159 15.64 84.5759 11.4 89.8159 11.4C95.0159 11.4 99.5759 15.64 99.5759 21.32C99.5759 27.04 95.0559 31.4 89.8159 31.4ZM89.8159 29.56C94.0559 29.56 97.5759 26.12 97.5759 21.32C97.5759 16.6 94.0559 13.24 89.8159 13.24C85.5759 13.24 82.0159 16.64 82.0159 21.32C82.0159 26.12 85.5759 29.56 89.8159 29.56Z" fill="white"/>
<path d="M112.477 31.3516C110.621 31.3516 108.961 30.9023 107.477 30.0234C105.973 29.1445 104.801 27.9141 103.941 26.3711C103.062 24.8281 102.633 23.0508 102.633 21.0781C102.633 19.1055 103.082 17.3281 103.98 15.7852C104.859 14.2422 106.051 13.0312 107.555 12.1523C109.039 11.2734 110.68 10.8242 112.477 10.8242C114.566 10.8242 116.441 11.4102 118.102 12.5625C119.742 13.7344 120.855 15.2578 121.461 17.1523C121.52 17.3281 121.539 17.4648 121.539 17.582C121.539 18.0898 121.227 18.3438 120.602 18.3438H117.164C116.676 18.3438 116.266 18.0898 115.934 17.582C115.172 16.4102 114.059 15.8242 112.555 15.8242C111.227 15.8242 110.113 16.3125 109.195 17.3086C108.277 18.3047 107.809 19.5547 107.809 21.0781C107.809 22.582 108.258 23.832 109.176 24.8281C110.074 25.8438 111.207 26.3516 112.555 26.3516C113.355 26.3516 114.059 26.2148 114.664 25.9219C115.27 25.6289 115.758 25.1797 116.09 24.5352C116.383 24.0078 116.793 23.7539 117.34 23.7539H120.68C121.324 23.7539 121.656 24.0273 121.656 24.5547C121.656 24.6523 121.637 24.7695 121.578 24.9453C121.012 26.8789 119.879 28.4414 118.199 29.5938C116.52 30.7656 114.605 31.3516 112.477 31.3516ZM133.16 26.3516C134.527 26.3516 135.699 25.8438 136.676 24.8477C137.633 23.8516 138.121 22.6016 138.121 21.0781C138.121 19.5742 137.633 18.3047 136.676 17.3086C135.699 16.3125 134.527 15.8242 133.16 15.8242C131.793 15.8242 130.621 16.3125 129.664 17.3086C128.688 18.3047 128.199 19.5742 128.199 21.0781C128.199 22.6016 128.688 23.8516 129.664 24.8477C130.621 25.8438 131.793 26.3516 133.16 26.3516ZM133.16 31.3516C131.305 31.3516 129.605 30.9023 128.062 30.0234C126.52 29.1445 125.309 27.9141 124.391 26.3711C123.473 24.8281 123.023 23.0703 123.023 21.0781C123.023 19.1055 123.492 17.3281 124.41 15.7852C125.328 14.2422 126.559 13.0312 128.102 12.1523C129.645 11.2734 131.324 10.8242 133.16 10.8242C135.016 10.8242 136.715 11.2734 138.258 12.1523C139.801 13.0312 141.012 14.2422 141.93 15.7852C142.848 17.3281 143.297 19.1055 143.297 21.0781C143.297 23.0703 142.828 24.8281 141.91 26.3711C140.992 27.9141 139.762 29.1445 138.219 30.0234C136.676 30.9023 134.996 31.3516 133.16 31.3516ZM148.433 31.6C147.713 32.04 147.233 31.92 147.033 31.24C146.993 31.08 146.953 30.68 146.953 30.04V3.96C146.953 3.44 146.953 3.04 146.953 2.8C146.953 2.6 146.993 2.36 147.033 2.16C147.113 1.96 147.193 1.84 147.233 1.8C147.313 1.8 147.473 1.8 147.673 1.8C147.913 1.84 148.113 1.88 148.313 2C148.513 2.12 148.873 2.24 149.353 2.4C149.833 2.6 150.313 2.76 150.753 2.88C151.153 3 151.473 3.2 151.713 3.4C151.953 3.64 152.113 3.84 152.153 4C152.233 4.16 152.273 4.32 152.273 4.44L152.313 28.96C152.353 29.52 151.833 30.04 150.793 30.52L148.433 31.6ZM159.176 31.6C158.456 32.04 157.976 31.92 157.776 31.24C157.736 31.08 157.696 30.68 157.696 30.04V3.96C157.696 3.44 157.696 3.04 157.696 2.8C157.696 2.6 157.736 2.36 157.776 2.16C157.856 1.96 157.936 1.84 157.976 1.8C158.056 1.8 158.216 1.8 158.416 1.8C158.656 1.84 158.856 1.88 159.056 2C159.256 2.12 159.616 2.24 160.096 2.4C160.576 2.6 161.056 2.76 161.496 2.88C161.896 3 162.216 3.2 162.456 3.4C162.696 3.64 162.856 3.84 162.896 4C162.976 4.16 163.016 4.32 163.016 4.44L163.056 28.96C163.096 29.52 162.576 30.04 161.536 30.52L159.176 31.6ZM172.047 18.6953H180.934C180.641 17.582 180.094 16.7227 179.332 16.1172C178.57 15.5312 177.691 15.2383 176.695 15.2383C175.504 15.2383 174.488 15.5508 173.688 16.1953C172.887 16.8398 172.34 17.6602 172.047 18.6953ZM176.871 31.3516C174.977 31.3516 173.277 30.9023 171.734 30.0234C170.191 29.1445 168.98 27.9141 168.082 26.3711C167.184 24.8281 166.734 23.0508 166.734 21.0781C166.734 19.1445 167.184 17.3867 168.082 15.8438C168.961 14.3008 170.152 13.0898 171.656 12.1719C173.141 11.2734 174.781 10.8242 176.578 10.8242C178.648 10.8242 180.426 11.293 181.91 12.25C183.375 13.207 184.508 14.4961 185.309 16.1172C186.109 17.7383 186.5 19.5547 186.5 21.5664C186.5 22.2695 186.148 22.6211 185.465 22.6211H171.988C172.262 23.9102 172.848 24.9258 173.766 25.6875C174.684 26.4492 175.777 26.8203 177.086 26.8203C178.746 26.8203 179.977 26.3125 180.758 25.2773C180.934 25.043 181.109 24.8672 181.305 24.75C181.48 24.6523 181.715 24.5938 182.008 24.5938H185.25C185.836 24.5938 186.129 24.8477 186.129 25.3359C186.129 25.4531 186.109 25.5898 186.051 25.7266C185.445 27.543 184.332 28.9297 182.73 29.8867C181.109 30.8633 179.156 31.3516 176.871 31.3516ZM198.297 31.3516C196.441 31.3516 194.781 30.9023 193.297 30.0234C191.793 29.1445 190.621 27.9141 189.762 26.3711C188.883 24.8281 188.453 23.0508 188.453 21.0781C188.453 19.1055 188.902 17.3281 189.801 15.7852C190.68 14.2422 191.871 13.0312 193.375 12.1523C194.859 11.2734 196.5 10.8242 198.297 10.8242C200.387 10.8242 202.262 11.4102 203.922 12.5625C205.562 13.7344 206.676 15.2578 207.281 17.1523C207.34 17.3281 207.359 17.4648 207.359 17.582C207.359 18.0898 207.047 18.3438 206.422 18.3438H202.984C202.496 18.3438 202.086 18.0898 201.754 17.582C200.992 16.4102 199.879 15.8242 198.375 15.8242C197.047 15.8242 195.934 16.3125 195.016 17.3086C194.098 18.3047 193.629 19.5547 193.629 21.0781C193.629 22.582 194.078 23.832 194.996 24.8281C195.895 25.8438 197.027 26.3516 198.375 26.3516C199.176 26.3516 199.879 26.2148 200.484 25.9219C201.09 25.6289 201.578 25.1797 201.91 24.5352C202.203 24.0078 202.613 23.7539 203.16 23.7539H206.5C207.145 23.7539 207.477 24.0273 207.477 24.5547C207.477 24.6523 207.457 24.7695 207.398 24.9453C206.832 26.8789 205.699 28.4414 204.02 29.5938C202.34 30.7656 200.426 31.3516 198.297 31.3516ZM219.527 31.3516C217.594 31.3516 216.051 30.707 214.938 29.418C213.805 28.1484 213.238 26.3516 213.238 24.0664V15.7656H210.465C209.781 15.7656 209.43 15.4336 209.43 14.75V12.1719C209.43 11.4883 209.781 11.1562 210.465 11.1562H213.238V6.27344C213.238 5.58984 213.59 5.23828 214.273 5.23828H217.438C218.121 5.23828 218.453 5.58984 218.453 6.27344V11.1562H222.535C223.219 11.1562 223.551 11.4883 223.551 12.1719V14.75C223.551 15.4336 223.219 15.7656 222.535 15.7656H218.453V23.9102C218.453 24.7109 218.648 25.3164 219.02 25.7656C219.391 26.2148 219.918 26.4297 220.602 26.4297C221.148 26.4297 221.637 26.3125 222.066 26.0977C222.32 25.9609 222.535 25.9023 222.75 25.9023C223.102 25.9023 223.375 26.1172 223.57 26.5273L224.527 28.5781C224.625 28.8125 224.684 29.0078 224.684 29.1836C224.684 29.4961 224.527 29.7695 224.195 29.9844C222.887 30.9023 221.324 31.3516 219.527 31.3516ZM229.137 8.79297C228.336 8.79297 227.633 8.5 227.027 7.93359C226.402 7.36719 226.09 6.625 226.09 5.70703C226.09 4.78906 226.402 4.06641 227.027 3.5C227.633 2.93359 228.336 2.66016 229.137 2.66016C229.938 2.66016 230.641 2.93359 231.266 3.5C231.871 4.06641 232.184 4.82812 232.184 5.74609C232.184 6.64453 231.871 7.36719 231.266 7.93359C230.641 8.5 229.938 8.79297 229.137 8.79297ZM230.738 31H227.535C226.852 31 226.5 30.6484 226.5 29.9648V12.1719C226.5 11.4883 226.852 11.1562 227.535 11.1562H230.738C231.422 11.1562 231.754 11.4883 231.754 12.1719V29.9648C231.754 30.6484 231.422 31 230.738 31ZM244.84 26.3516C246.207 26.3516 247.379 25.8438 248.355 24.8477C249.312 23.8516 249.801 22.6016 249.801 21.0781C249.801 19.5742 249.312 18.3047 248.355 17.3086C247.379 16.3125 246.207 15.8242 244.84 15.8242C243.473 15.8242 242.301 16.3125 241.344 17.3086C240.367 18.3047 239.879 19.5742 239.879 21.0781C239.879 22.6016 240.367 23.8516 241.344 24.8477C242.301 25.8438 243.473 26.3516 244.84 26.3516ZM244.84 31.3516C242.984 31.3516 241.285 30.9023 239.742 30.0234C238.199 29.1445 236.988 27.9141 236.07 26.3711C235.152 24.8281 234.703 23.0703 234.703 21.0781C234.703 19.1055 235.172 17.3281 236.09 15.7852C237.008 14.2422 238.238 13.0312 239.781 12.1523C241.324 11.2734 243.004 10.8242 244.84 10.8242C246.695 10.8242 248.395 11.2734 249.938 12.1523C251.48 13.0312 252.691 14.2422 253.609 15.7852C254.527 17.3281 254.977 19.1055 254.977 21.0781C254.977 23.0703 254.508 24.8281 253.59 26.3711C252.672 27.9141 251.441 29.1445 249.898 30.0234C248.355 30.9023 246.676 31.3516 244.84 31.3516ZM271.285 31C271.012 31 270.777 30.9023 270.562 30.7266C270.348 30.5508 270.25 30.3164 270.25 30.0625V20.043C270.25 18.6172 269.977 17.5625 269.43 16.8398C268.883 16.1367 268.023 15.7852 266.871 15.7852C265.719 15.7852 264.801 16.1758 264.137 16.957C263.473 17.7383 263.141 18.832 263.141 20.2188V30.0625C263.141 30.3359 263.043 30.5508 262.848 30.7266C262.633 30.9023 262.398 31 262.105 31H258.941C258.258 30.9414 257.906 30.6094 257.906 29.9648V12.1914C257.906 11.8789 258.004 11.625 258.219 11.4297C258.434 11.2539 258.668 11.1562 258.941 11.1562H262.105C262.398 11.1562 262.652 11.2539 262.848 11.4297C263.043 11.6055 263.141 11.8398 263.141 12.0938V12.9727C263.863 12.25 264.684 11.7031 265.582 11.3516C266.48 11 267.418 10.8242 268.375 10.8242C270.602 10.8242 272.34 11.5664 273.59 13.0312C274.82 14.5156 275.445 16.5664 275.445 19.2031V30.082C275.445 30.3359 275.348 30.5508 275.172 30.7266C274.977 30.9023 274.742 31 274.449 31H271.285Z" fill="url(#paint0_linear_314_352)"/>
<defs>
<linearGradient id="paint0_linear_314_352" x1="102.5" y1="19" x2="278" y2="19" gradientUnits="userSpaceOnUse">
<stop stop-color="#FB0234"/>
<stop offset="0.536458" stop-color="#FC2D24"/>
<stop offset="1" stop-color="#FF8F01"/>
</linearGradient>
</defs>
</svg>
