<svg width="19" height="22" viewBox="0 0 19 22" fill="none" xmlns="http://www.w3.org/2000/svg">
<path d="M2.375 0.0522461C1.064 0.0522461 0 1.16703 0 2.54061V4.85379C0.000505987 5.38598 0.136755 5.90835 0.394643 6.36685C0.652532 6.82535 1.02269 7.2033 1.4668 7.46159L6.9312 10.6447C5.78664 11.2501 4.87031 12.2421 4.33027 13.4605C3.79024 14.6789 3.65803 16.0524 3.95502 17.3592C4.25201 18.6661 4.96084 19.8298 5.967 20.6624C6.97315 21.4951 8.21785 21.948 9.5 21.948C10.7821 21.948 12.0269 21.4951 13.033 20.6624C14.0392 19.8298 14.748 18.6661 15.045 17.3592C15.342 16.0524 15.2098 14.6789 14.6697 13.4605C14.1297 12.2421 13.2134 11.2501 12.0688 10.6447L17.5351 7.46358C17.9791 7.20487 18.3491 6.82649 18.6067 6.36763C18.8642 5.90877 19 5.38612 19 4.85379V2.54061C19 1.16703 17.936 0.0522461 16.625 0.0522461H2.375ZM7.6 8.75554V2.04293H11.4V8.75554L9.5 9.86236L7.6 8.75554ZM13.3 15.9778C13.3 17.0337 12.8996 18.0464 12.187 18.793C11.4744 19.5397 10.5078 19.9591 9.5 19.9591C8.49218 19.9591 7.52563 19.5397 6.81299 18.793C6.10036 18.0464 5.7 17.0337 5.7 15.9778C5.7 14.9218 6.10036 13.9091 6.81299 13.1625C7.52563 12.4158 8.49218 11.9964 9.5 11.9964C10.5078 11.9964 11.4744 12.4158 12.187 13.1625C12.8996 13.9091 13.3 14.9218 13.3 15.9778Z" fill="white"/>
</svg>
