<svg width="22" height="22" viewBox="0 0 22 22" fill="none" xmlns="http://www.w3.org/2000/svg">
<path d="M9.9 8.8H12.1C13.6554 8.8 14.4331 8.8 14.916 9.284C15.4 9.7669 15.4 10.5446 15.4 12.1V18.7C15.4 17.1446 15.4 16.3669 15.884 15.884C16.3658 15.4 17.1435 15.4 18.7 15.4C20.2554 15.4 21.0331 15.4 21.516 15.884C22 16.3669 22 17.1446 22 18.7V22H0C0 20.4446 6.55651e-08 19.6669 0.484 19.184C0.9658 18.7 1.7435 18.7 3.3 18.7C4.8554 18.7 5.6331 18.7 6.116 19.184C6.6 19.6658 6.6 20.4435 6.6 22V12.1C6.6 10.5446 6.6 9.7669 7.084 9.284C7.5658 8.8 8.3435 8.8 9.9 8.8ZM10.0606 1.1253C10.4786 0.374 10.6876 0 11 0C11.3124 0 11.5214 0.374 11.9394 1.1253L12.0472 1.3189C12.166 1.5323 12.2254 1.6379 12.3178 1.7083C12.4113 1.7787 12.5268 1.8051 12.7578 1.8568L12.9668 1.9052C13.7786 2.0889 14.1845 2.1802 14.2813 2.4904C14.3781 2.8017 14.1009 3.1251 13.5476 3.7719L13.4046 3.9391C13.2473 4.1228 13.1681 4.2141 13.1329 4.3285C13.0977 4.4429 13.1098 4.565 13.1329 4.8103L13.1549 5.0336C13.2385 5.8971 13.2803 6.3294 13.0284 6.5208C12.7754 6.7133 12.3948 6.5373 11.6347 6.1875L11.4389 6.0973C11.2222 5.9983 11.1144 5.9477 11 5.9477C10.8856 5.9477 10.7778 5.9983 10.5611 6.0973L10.3653 6.1875C9.6052 6.5373 9.2246 6.7133 8.9716 6.5208C8.7186 6.3294 8.7615 5.8971 8.8451 5.0336L8.8671 4.8103C8.8902 4.565 8.9023 4.4429 8.8671 4.3285C8.8319 4.2152 8.7527 4.1228 8.5954 3.9391L8.4524 3.7719C7.8991 3.1251 7.6219 2.8017 7.7187 2.4904C7.8155 2.1802 8.2214 2.0889 9.0332 1.9052L9.2422 1.8568C9.4732 1.8051 9.5887 1.7798 9.6822 1.7083C9.7746 1.6379 9.834 1.5323 9.9528 1.3189L10.0606 1.1253Z" fill="white"/>
</svg>
