<svg width="73" height="87" viewBox="0 0 73 87" fill="none" xmlns="http://www.w3.org/2000/svg">
<path d="M13.2948 23.4365V35.9701H7.93981C6.04616 35.9701 4.23007 36.7247 2.89106 38.0678C1.55205 39.411 0.799805 41.2326 0.799805 43.1321L0.799805 78.9423C0.799805 80.8418 1.55205 82.6635 2.89106 84.0066C4.23007 85.3498 6.04616 86.1044 7.93981 86.1044H65.0598C66.9535 86.1044 68.7695 85.3498 70.1086 84.0066C71.4476 82.6635 72.1998 80.8418 72.1998 78.9423V43.1321C72.1998 41.2326 71.4476 39.411 70.1086 38.0678C68.7695 36.7247 66.9535 35.9701 65.0598 35.9701H59.7048V23.4365C59.7048 17.2632 57.26 11.3427 52.9082 6.97748C48.5564 2.61226 42.6542 0.159912 36.4998 0.159912C30.3455 0.159912 24.4432 2.61226 20.0914 6.97748C15.7396 11.3427 13.2948 17.2632 13.2948 23.4365ZM22.2198 35.9701V23.4365C22.2198 19.6376 23.7243 15.9942 26.4023 13.3079C29.0803 10.6216 32.7125 9.11246 36.4998 9.11246C40.2871 9.11246 43.9193 10.6216 46.5973 13.3079C49.2753 15.9942 50.7798 19.6376 50.7798 23.4365V35.9701H22.2198ZM29.3598 55.6657C29.3601 54.4249 29.6817 53.2056 30.2931 52.127C30.9045 51.0484 31.7848 50.1477 32.8477 49.513C33.9105 48.8784 35.1196 48.5316 36.3562 48.5066C37.5929 48.4817 38.8148 48.7794 39.9023 49.3707C40.9898 49.962 41.9054 50.8265 42.5596 51.8795C43.2138 52.9326 43.584 54.138 43.634 55.3777C43.684 56.6175 43.412 57.849 42.8448 58.9516C42.2776 60.0542 41.4345 60.99 40.3982 61.6675L40.3697 61.6854C40.3697 61.6854 41.0658 65.911 41.8512 70.8886V70.8922C41.8512 71.6036 41.5695 72.2858 41.0681 72.7888C40.5666 73.2918 39.8865 73.5744 39.1773 73.5744H33.8152C33.106 73.5744 32.4259 73.2918 31.9244 72.7888C31.423 72.2858 31.1412 71.6036 31.1412 70.8922V70.8886L32.6228 61.6854C31.6204 61.0361 30.796 60.1454 30.2248 59.0946C29.6536 58.0438 29.3538 56.8662 29.3527 55.6693L29.3598 55.6657Z" fill="white"/>
</svg>
